<svg xmlns="http://www.w3.org/2000/svg" xmlns:xlink="http://www.w3.org/1999/xlink" width="300" zoomAndPan="magnify" viewBox="0 0 224.87999 225" height="300" preserveAspectRatio="xMidYMid meet" version="1.0"><defs><g/><clipPath id="077c7d2410"><path d="M 0 0.0585938 L 224.761719 0.0585938 L 224.761719 224.9375 L 0 224.9375 Z M 0 0.0585938 " clip-rule="nonzero"/></clipPath><clipPath id="ae4102c36c"><path d="M 6.542969 6.660156 L 109.613281 6.660156 L 109.613281 109.730469 L 6.542969 109.730469 Z M 6.542969 6.660156 " clip-rule="nonzero"/></clipPath><clipPath id="0ae544782b"><path d="M 0.542969 0.660156 L 103.613281 0.660156 L 103.613281 103.730469 L 0.542969 103.730469 Z M 0.542969 0.660156 " clip-rule="nonzero"/></clipPath><clipPath id="5367983539"><rect x="0" width="104" y="0" height="104"/></clipPath><clipPath id="079e797e7c"><path d="M 115.269531 115.269531 L 218.339844 115.269531 L 218.339844 218.339844 L 115.269531 218.339844 Z M 115.269531 115.269531 " clip-rule="nonzero"/></clipPath><clipPath id="6aafd508e9"><path d="M 0.269531 0.269531 L 103.339844 0.269531 L 103.339844 103.339844 L 0.269531 103.339844 Z M 0.269531 0.269531 " clip-rule="nonzero"/></clipPath><clipPath id="f4f514fcad"><rect x="0" width="104" y="0" height="104"/></clipPath><clipPath id="94bc7aad85"><path d="M 6.65625 115.222656 L 109.726562 115.222656 L 109.726562 218.292969 L 6.65625 218.292969 Z M 6.65625 115.222656 " clip-rule="nonzero"/></clipPath><clipPath id="62436f859f"><path d="M 0.65625 0.222656 L 103.726562 0.222656 L 103.726562 103.292969 L 0.65625 103.292969 Z M 0.65625 0.222656 " clip-rule="nonzero"/></clipPath><clipPath id="a88397f277"><rect x="0" width="104" y="0" height="104"/></clipPath><clipPath id="a3028fd2de"><path d="M 115.269531 6.660156 L 218.339844 6.660156 L 218.339844 109.730469 L 115.269531 109.730469 Z M 115.269531 6.660156 " clip-rule="nonzero"/></clipPath><clipPath id="bc85d4b71c"><path d="M 0.269531 0.660156 L 103.339844 0.660156 L 103.339844 103.730469 L 0.269531 103.730469 Z M 0.269531 0.660156 " clip-rule="nonzero"/></clipPath><clipPath id="f0f4b25860"><rect x="0" width="104" y="0" height="104"/></clipPath><clipPath id="9dc98cda32"><rect x="0" width="38" y="0" height="88"/></clipPath><clipPath id="cb5341f179"><rect x="0" width="38" y="0" height="88"/></clipPath><clipPath id="0409568984"><rect x="0" width="39" y="0" height="88"/></clipPath><clipPath id="11adb8cd26"><rect x="0" width="22" y="0" height="88"/></clipPath></defs><g clip-path="url(#077c7d2410)"><path fill="#ffffff" d="M 0 0.0585938 L 224.878906 0.0585938 L 224.878906 224.941406 L 0 224.941406 Z M 0 0.0585938 " fill-opacity="1" fill-rule="nonzero"/><path fill="#ffffff" d="M 0 0.0585938 L 224.878906 0.0585938 L 224.878906 224.941406 L 0 224.941406 Z M 0 0.0585938 " fill-opacity="1" fill-rule="nonzero"/></g><g clip-path="url(#ae4102c36c)"><g transform="matrix(1, 0, 0, 1, 6, 6)"><g clip-path="url(#5367983539)"><g clip-path="url(#0ae544782b)"><path fill="#ff914d" d="M 0.542969 0.660156 L 103.613281 0.660156 L 103.613281 103.730469 L 0.542969 103.730469 Z M 0.542969 0.660156 " fill-opacity="1" fill-rule="nonzero"/></g></g></g></g><g clip-path="url(#079e797e7c)"><g transform="matrix(1, 0, 0, 1, 115, 115)"><g clip-path="url(#f4f514fcad)"><g clip-path="url(#6aafd508e9)"><path fill="#d73846" d="M 0.269531 0.269531 L 103.339844 0.269531 L 103.339844 103.339844 L 0.269531 103.339844 Z M 0.269531 0.269531 " fill-opacity="1" fill-rule="nonzero"/></g></g></g></g><g clip-path="url(#94bc7aad85)"><g transform="matrix(1, 0, 0, 1, 6, 115)"><g clip-path="url(#a88397f277)"><g clip-path="url(#62436f859f)"><path fill="#242ab3" d="M 0.65625 0.222656 L 103.726562 0.222656 L 103.726562 103.292969 L 0.65625 103.292969 Z M 0.65625 0.222656 " fill-opacity="1" fill-rule="nonzero"/></g></g></g></g><g clip-path="url(#a3028fd2de)"><g transform="matrix(1, 0, 0, 1, 115, 6)"><g clip-path="url(#f0f4b25860)"><g clip-path="url(#bc85d4b71c)"><path fill="#54a3dc" d="M 0.269531 0.660156 L 103.339844 0.660156 L 103.339844 103.730469 L 0.269531 103.730469 Z M 0.269531 0.660156 " fill-opacity="1" fill-rule="nonzero"/></g></g></g></g><g transform="matrix(1, 0, 0, 1, 39, 14)"><g clip-path="url(#9dc98cda32)"><g fill="#ffffff" fill-opacity="1"><g transform="translate(1.041447, 68.016962)"><g><path d="M 34.542969 -7.507812 L 13.617188 -7.507812 C 11.824219 -7.507812 10.695312 -7.574219 10.695312 -9.433594 L 10.695312 -22.320312 C 10.695312 -24.179688 11.824219 -24.246094 13.617188 -24.246094 L 34.542969 -24.246094 L 34.542969 -31.75 L 10.761719 -31.75 C 6.640625 -31.75 2.789062 -31.351562 2.789062 -25.773438 L 2.789062 -5.976562 C 2.789062 -0.398438 6.640625 0 10.761719 0 L 34.542969 0 Z M 34.542969 -7.507812 "/></g></g></g></g></g><g transform="matrix(1, 0, 0, 1, 148, 14)"><g clip-path="url(#cb5341f179)"><g fill="#ffffff" fill-opacity="1"><g transform="translate(0.767433, 68.016962)"><g><path d="M 34.542969 -7.507812 L 13.617188 -7.507812 C 11.824219 -7.507812 10.695312 -7.574219 10.695312 -9.433594 L 10.695312 -22.320312 C 10.695312 -24.179688 11.824219 -24.246094 13.617188 -24.246094 L 34.542969 -24.246094 L 34.542969 -31.75 L 10.761719 -31.75 C 6.640625 -31.75 2.789062 -31.351562 2.789062 -25.773438 L 2.789062 -5.976562 C 2.789062 -0.398438 6.640625 0 10.761719 0 L 34.542969 0 Z M 34.542969 -7.507812 "/></g></g></g></g></g><g transform="matrix(1, 0, 0, 1, 39, 122)"><g clip-path="url(#0409568984)"><g fill="#ffffff" fill-opacity="1"><g transform="translate(0.360288, 68.581733)"><g><path d="M 26.902344 0 C 31.019531 0 34.875 -0.398438 34.875 -5.976562 L 34.875 -25.773438 C 34.875 -31.351562 31.019531 -31.75 26.902344 -31.75 L 11.027344 -31.75 L 11.027344 -44.304688 L 3.121094 -44.304688 L 3.121094 0 Z M 26.96875 -9.433594 C 26.96875 -7.574219 25.839844 -7.507812 24.046875 -7.507812 L 11.027344 -7.507812 L 11.027344 -24.246094 L 24.046875 -24.246094 C 25.839844 -24.246094 26.96875 -24.179688 26.96875 -22.320312 Z M 26.96875 -9.433594 "/></g></g></g></g></g><g transform="matrix(1, 0, 0, 1, 157, 122)"><g clip-path="url(#11adb8cd26)"><g fill="#ffffff" fill-opacity="1"><g transform="translate(0.332916, 68.581733)"><g><path d="M 18.996094 -24.246094 L 18.996094 -31.75 L 3.121094 -31.75 L 3.121094 0 L 11.027344 0 L 11.027344 -24.246094 Z M 18.996094 -24.246094 "/></g></g></g></g></g></svg>