<svg id="svg" version="1.1" xmlns="http://www.w3.org/2000/svg" xmlns:xlink="http://www.w3.org/1999/xlink" width="400" height="400" viewBox="0, 0, 400,400"><g id="svgg"><path id="path0" d="M205.385 12.499 C 205.281 12.775,205.241 53.860,205.297 103.800 L 205.400 194.600 296.600 194.600 L 387.800 194.600 387.800 103.400 L 387.800 12.200 296.688 12.099 C 224.008 12.019,205.537 12.100,205.385 12.499 M325.424 89.767 C 326.381 90.466,326.861 101.163,325.982 102.222 C 325.575 102.712,322.490 102.800,305.805 102.800 C 286.452 102.800,286.089 102.815,285.049 103.633 L 283.989 104.466 284.095 117.928 L 284.200 131.389 285.400 131.995 C 286.414 132.506,289.614 132.615,306.000 132.698 C 328.876 132.814,326.400 132.007,326.400 139.345 C 326.400 146.817,329.290 146.001,302.838 145.997 C 276.028 145.993,274.143 145.777,271.677 142.425 C 269.621 139.630,269.600 139.377,269.600 117.650 C 269.601 87.044,266.881 89.341,303.224 89.252 C 321.139 89.209,324.774 89.293,325.424 89.767 M12.080 205.280 C 11.441 205.919,11.376 386.433,12.014 387.626 C 12.528 388.586,193.763 388.877,194.720 387.920 C 195.419 387.221,195.419 205.979,194.720 205.280 C 194.021 204.581,12.779 204.581,12.080 205.280 M194.400 296.600 L 194.400 387.600 103.400 387.600 L 12.400 387.600 12.400 296.600 L 12.400 205.600 103.400 205.600 L 194.400 205.600 194.400 296.600 M75.689 259.823 L 74.800 260.445 74.800 299.213 L 74.800 337.982 75.765 338.614 C 76.623 339.176,79.377 339.232,100.665 339.116 L 124.600 338.985 126.800 337.936 C 129.022 336.876,130.015 335.988,131.426 333.800 C 132.699 331.826,132.620 289.381,131.339 287.000 C 128.695 282.088,126.423 281.600,106.180 281.600 C 94.876 281.600,90.837 281.477,90.480 281.120 C 90.132 280.772,90.000 277.816,90.000 270.334 C 90.000 260.554,89.961 260.007,89.226 259.614 C 87.910 258.910,76.747 259.082,75.689 259.823 M89.200 270.881 C 89.318 277.199,89.563 281.720,89.800 281.949 C 90.041 282.183,97.021 282.389,107.400 282.469 C 133.464 282.668,131.600 280.516,131.600 310.400 C 131.600 340.919,134.524 338.400,99.101 338.400 L 76.000 338.400 76.000 299.467 C 76.000 278.053,76.124 260.409,76.276 260.257 C 76.428 260.105,79.353 260.030,82.776 260.090 L 89.000 260.200 89.200 270.881 M89.829 295.829 C 89.006 296.651,88.866 324.306,89.680 325.120 C 90.206 325.646,114.108 325.763,116.000 325.249 C 118.185 324.655,118.399 323.346,118.399 310.560 C 118.400 297.556,118.261 296.635,116.159 295.757 C 114.069 294.884,90.710 294.947,89.829 295.829 M116.809 296.800 C 117.027 297.146,117.190 302.949,117.194 310.490 L 117.200 323.579 116.020 324.190 C 115.038 324.698,112.796 324.800,102.667 324.800 L 90.493 324.800 90.252 323.900 C 89.743 322.001,89.972 296.478,90.500 296.257 C 91.840 295.694,116.431 296.202,116.809 296.800 " stroke="none" fill="#54a3dc" fill-rule="evenodd"></path><path id="path1" d="M0.000 200.000 L 0.000 400.000 200.000 400.000 L 400.000 400.000 400.000 200.000 L 400.000 0.000 200.000 0.000 L 0.000 0.000 0.000 200.000 M194.600 103.400 L 194.600 194.600 103.400 194.600 L 12.200 194.600 12.097 103.800 C 12.041 53.860,12.081 12.775,12.185 12.499 C 12.337 12.100,30.808 12.019,103.488 12.099 L 194.600 12.200 194.600 103.400 M387.800 103.400 L 387.800 194.600 296.600 194.600 L 205.400 194.600 205.297 103.800 C 205.241 53.860,205.281 12.775,205.385 12.499 C 205.537 12.100,224.008 12.019,296.688 12.099 L 387.800 12.200 387.800 103.400 M107.000 89.604 C 73.125 89.924,75.991 87.323,76.018 117.715 C 76.044 148.283,73.351 145.992,109.271 145.997 C 135.623 146.001,132.725 146.811,132.725 139.434 C 132.725 131.950,134.921 132.748,114.387 132.768 C 95.999 132.786,91.778 132.532,90.915 131.352 C 90.520 130.811,90.400 127.604,90.400 117.553 L 90.400 104.458 91.454 103.629 C 92.488 102.816,92.883 102.800,112.264 102.800 L 132.020 102.800 132.443 101.700 C 133.661 98.531,132.549 88.969,131.000 89.297 C 130.780 89.343,119.980 89.482,107.000 89.604 M279.600 89.599 C 274.232 90.318,271.682 91.919,270.359 95.404 C 269.339 98.089,269.180 136.708,270.177 139.535 C 272.387 145.798,273.373 145.993,302.838 145.997 C 329.290 146.001,326.400 146.817,326.400 139.345 C 326.400 132.007,328.876 132.814,306.000 132.698 C 289.614 132.615,286.414 132.506,285.400 131.995 L 284.200 131.389 284.095 117.928 L 283.989 104.466 285.049 103.633 C 286.089 102.815,286.452 102.800,305.805 102.800 C 322.490 102.800,325.575 102.712,325.982 102.222 C 326.861 101.163,326.381 90.466,325.424 89.767 C 324.571 89.145,284.104 88.997,279.600 89.599 M194.720 205.280 C 195.419 205.979,195.419 387.221,194.720 387.920 C 193.763 388.877,12.528 388.586,12.014 387.626 C 11.376 386.433,11.441 205.919,12.080 205.280 C 12.779 204.581,194.021 204.581,194.720 205.280 M388.157 205.833 C 388.920 207.822,388.396 387.574,387.626 387.986 C 386.545 388.565,207.055 388.565,205.974 387.986 C 205.189 387.566,204.685 206.248,205.467 205.467 C 206.125 204.808,387.904 205.172,388.157 205.833 M76.276 260.257 C 76.124 260.409,76.000 278.053,76.000 299.467 L 76.000 338.400 99.101 338.400 C 134.524 338.400,131.600 340.919,131.600 310.400 C 131.600 280.516,133.464 282.668,107.400 282.469 C 97.021 282.389,90.041 282.183,89.800 281.949 C 89.563 281.720,89.318 277.199,89.200 270.881 L 89.000 260.200 82.776 260.090 C 79.353 260.030,76.428 260.105,76.276 260.257 M285.867 282.667 C 285.720 282.813,285.600 295.413,285.600 310.667 L 285.600 338.400 292.400 338.400 L 299.200 338.400 299.200 317.480 C 299.200 301.742,299.319 296.441,299.680 296.080 C 300.013 295.747,302.095 295.600,306.466 295.600 C 312.291 295.600,312.803 295.541,313.186 294.826 C 313.784 293.709,313.727 283.487,313.120 282.880 C 312.599 282.359,286.380 282.153,285.867 282.667 M116.159 295.757 C 118.261 296.635,118.400 297.556,118.399 310.560 C 118.399 323.346,118.185 324.655,116.000 325.249 C 114.108 325.763,90.206 325.646,89.680 325.120 C 88.866 324.306,89.006 296.651,89.829 295.829 C 90.710 294.947,114.069 294.884,116.159 295.757 " stroke="none" fill="#ffffff00" fill-rule="evenodd"></path><path id="path2" d="M12.185 12.499 C 12.081 12.775,12.041 53.860,12.097 103.800 L 12.200 194.600 103.400 194.600 L 194.600 194.600 194.600 103.400 L 194.600 12.200 103.488 12.099 C 30.808 12.019,12.337 12.100,12.185 12.499 M132.000 89.591 C 132.751 90.066,133.113 99.957,132.443 101.700 L 132.020 102.800 112.264 102.800 C 92.883 102.800,92.488 102.816,91.454 103.629 L 90.400 104.458 90.400 117.553 C 90.400 127.604,90.520 130.811,90.915 131.352 C 91.778 132.532,95.999 132.786,114.387 132.768 C 134.921 132.748,132.725 131.950,132.725 139.434 C 132.725 146.811,135.623 146.001,109.271 145.997 C 82.157 145.993,80.517 145.791,78.012 142.136 C 76.052 139.275,76.036 139.080,76.018 117.715 C 75.991 87.323,73.125 89.924,107.000 89.604 C 119.980 89.482,130.780 89.343,131.000 89.297 C 131.220 89.250,131.670 89.383,132.000 89.591 M205.467 205.467 C 204.685 206.248,205.189 387.566,205.974 387.986 C 207.055 388.565,386.545 388.565,387.626 387.986 C 388.396 387.574,388.920 207.822,388.157 205.833 C 387.904 205.172,206.125 204.808,205.467 205.467 M387.600 296.600 L 387.600 387.600 296.600 387.600 L 205.600 387.600 205.600 296.867 C 205.600 246.963,205.720 206.013,205.867 205.867 C 206.013 205.720,246.963 205.600,296.867 205.600 L 387.600 205.600 387.600 296.600 M285.190 282.626 C 284.455 284.560,284.682 337.825,285.429 338.571 C 286.252 339.395,298.234 339.506,299.323 338.700 C 299.940 338.243,300.007 336.377,300.099 317.200 L 300.200 296.200 306.876 296.090 C 314.811 295.960,314.071 296.736,314.071 288.557 C 314.071 280.810,315.743 281.600,299.341 281.600 L 285.580 281.600 285.190 282.626 M313.120 282.880 C 313.727 283.487,313.784 293.709,313.186 294.826 C 312.803 295.541,312.291 295.600,306.466 295.600 C 302.095 295.600,300.013 295.747,299.680 296.080 C 299.319 296.441,299.200 301.742,299.200 317.480 L 299.200 338.400 292.400 338.400 L 285.600 338.400 285.600 310.667 C 285.600 295.413,285.720 282.813,285.867 282.667 C 286.380 282.153,312.599 282.359,313.120 282.880 " stroke="none" fill="#fb934c" fill-rule="evenodd"></path><path id="path3" d="M12.400 296.600 L 12.400 387.600 103.400 387.600 L 194.400 387.600 194.400 296.600 L 194.400 205.600 103.400 205.600 L 12.400 205.600 12.400 296.600 M89.226 259.614 C 89.961 260.007,90.000 260.554,90.000 270.334 C 90.000 277.816,90.132 280.772,90.480 281.120 C 90.837 281.477,94.876 281.600,106.180 281.600 C 126.423 281.600,128.695 282.088,131.339 287.000 C 132.620 289.381,132.699 331.826,131.426 333.800 C 130.015 335.988,129.022 336.876,126.800 337.936 L 124.600 338.985 100.665 339.116 C 79.377 339.232,76.623 339.176,75.765 338.614 L 74.800 337.982 74.800 299.213 L 74.800 260.445 75.689 259.823 C 76.747 259.082,87.910 258.910,89.226 259.614 M90.500 296.257 C 89.972 296.478,89.743 322.001,90.252 323.900 L 90.493 324.800 102.667 324.800 C 112.796 324.800,115.038 324.698,116.020 324.190 L 117.200 323.579 117.194 310.490 C 117.190 302.949,117.027 297.146,116.809 296.800 C 116.431 296.202,91.840 295.694,90.500 296.257 " stroke="none" fill="#242bb4" fill-rule="evenodd"></path><path id="path4" d="M205.867 205.867 C 205.720 206.013,205.600 246.963,205.600 296.867 L 205.600 387.600 296.600 387.600 L 387.600 387.600 387.600 296.600 L 387.600 205.600 296.867 205.600 C 246.963 205.600,206.013 205.720,205.867 205.867 M313.586 282.184 C 314.107 282.811,314.294 293.642,313.811 295.164 C 313.566 295.937,313.197 295.987,306.876 296.090 L 300.200 296.200 300.099 317.200 C 300.007 336.377,299.940 338.243,299.323 338.700 C 298.234 339.506,286.252 339.395,285.429 338.571 C 284.682 337.825,284.455 284.560,285.190 282.626 L 285.580 281.600 299.341 281.600 C 310.912 281.600,313.179 281.693,313.586 282.184 " stroke="none" fill="#d43b43" fill-rule="evenodd"></path></g></svg>