<svg xmlns:xlink="http://www.w3.org/1999/xlink" class="mascot" preserveAspectRatio="xMidYMid meet" data-bbox="222.295 0 1753.092 2160" viewBox="222.295 0 1753.092 2160" height="40" width="40" xmlns="http://www.w3.org/2000/svg" data-type="shape" role="presentation" aria-hidden="true" aria-label=""><g><path d="M1168 .3c0 .1-1.3 10.8-2.9 23.8-3.3 25.9-4.8 31.8-9.4 36.6-5.6 5.9-12.7 7.3-49.7 9.9l-25.6 1.8-2.3 37.5c-1.2 20.7-2.5 41.3-2.8 45.8l-.6 8.2 32.9.3c30.8.3 33.1.4 36.3 2.3 7 4.1 7.6 5.8 7.9 24.1.6 29.6-3.9 40-25 57-26.5 21.4-39 34.9-50.6 54.4-16.1 27.4-23 59.4-18.8 87.6 2.9 19.6 8 33.6 19.1 52.3 12.9 21.9 14 25.9 8.9 33.3-4.1 5.8-15.7 15.6-22.3 18.7-5.2 2.4-6.6 2.6-19.1 2.5-12.3 0-14.7-.3-27.2-3.7-26.6-7.1-59.7-20-145.3-56.2-119.7-50.6-214.1-79.2-286-86.4-41.8-4.2-81.9-.5-113 10.4-38.3 13.6-67.3 37.1-94.2 76.5-6.5 9.5-21.5 37.9-27.3 51.5-26.5 62.6-28.5 116.8-7.1 199 11.8 45.1 28.4 92.4 63.1 180 31 78.2 45.5 120.1 57.5 165.9 11.4 44 15.9 82 12 102.1-2.2 11.7-2.3 21.1-.1 25.3 3.2 6.2 5.5 6.9 35.6 10.6 52.8 6.6 115.8 12.7 395.5 38.6 107.3 9.9 226.1 21 264 24.5 159.3 15.1 290.3 27.6 296.6 28.5 9 1.3 91.1 9.4 121.9 12 27.9 2.4 75.8 7.1 96.5 9.6 28.3 3.3 32.2.8 32.4-20.6.3-25.8 13.4-63.8 42.2-122 24.3-49.2 48-89.6 83.9-143.5 90.2-135.1 125.4-213.6 129.9-289.1 1.6-25.9-.7-48.6-7.5-75.8-18.1-72-57.7-119.4-127.9-152.6-31.2-14.8-47.2-18.3-92.9-20.1-50.1-2-110.8 2.1-174.1 11.6-24.2 3.7-35.5 5.9-88.6 17.4-81 17.4-178.7 35.1-194.7 35.1-13.2 0-17.2-2.3-29.5-16.8-10.9-12.9-13-16.4-12.9-21.7 0-5.8 2.7-10.2 13.4-22.8 22.5-26.7 29.6-39.1 35.9-62.7 3-11.2 3.7-34.6 1.5-47.9-4.1-24.5-12-43.2-30.2-71.3-14.5-22.5-23.2-42-26.9-60.6-2.3-11.3-1.8-35.1.9-40 3.2-6.2 5.5-6.6 37.2-5.8 30.8.8 34.3.4 38.7-4.1 3.6-3.8 5.1-8.7 7.8-24.9 1.7-10.2 2.4-17.9 2.4-28.9 0-14.5-.1-15.1-2.7-19.6-1.5-2.5-3.8-5.4-5.2-6.3-4-2.6-13.4-4.6-21.2-4.6-24.9 0-37.5-6.4-41.9-21.3-2.2-7.2-3.5-24.8-3.5-47V0h-42.5c-23.4 0-42.5.1-42.5.3zM605 438c36.3 1.8 54 5.1 89.5 16.6 40.1 13 114.8 44 174.6 72.4 63.1 30 109.8 58.6 119.4 73.3 1.2 1.9 2.3 6.7 3.2 14.5 1.8 15.7 8.1 46.6 15.4 75.2 3.3 12.9 8.7 34.1 12 47 24.2 95.2 29.8 169.5 17.5 229.6-8.2 40-24.6 73.1-51.4 103.6-17.5 20.1-34.1 33.8-46.9 38.9-4.8 2-7.6 2.3-16.3 2.3-9.3 0-11.5-.4-18.7-3.1-16.9-6.4-34.6-17.9-47.7-30.8-21.9-21.8-36.9-49.4-38.3-70.5-.5-7.6-.3-8.8 1.6-11.1 3.5-4.5 8.6-5 42.3-4.7l30.6.3 3.8-3c6-4.9 6.7-8.1 6.8-32 .1-22.6-.4-26-5.1-31.6-5.4-6.4-16.2-10-44.8-14.9-28.1-4.9-34.4-7.1-39.5-14.2-4-5.5-6.3-13.3-9.4-32.4-7.1-43.1-10-46.1-51.4-53.4-30.6-5.4-37.8-3.3-38.9 11.2-.6 7.2.2 14.2 5.3 47.6 2 12.8 3.4 23.6 3.1 23.9-.4.3-13.6-.2-29.4-1.1-15.8-.9-38.6-1.9-50.5-2.3-18.7-.5-21.8-.4-21.8.8 0 3.5 5.1 45.4 6.1 50.2 2.6 12 8.5 20.4 17.3 24.7 5.9 2.8 17.9 4.9 28.6 5 10.9 0 25.9 1.6 33.2 3.5 16.6 4.2 26.2 13.2 31.5 29.5 3.7 11.3 3.5 40.2-.3 55.7-5 20.2-17.1 29.3-39.1 29.3-17.5 0-36.8-7.9-55.8-22.9-42.9-33.8-89.2-106-143.1-222.9-51.4-111.4-73.6-186.8-73.5-249.7 0-31.7 4.3-52.8 15.9-78.5 25.1-55.6 60.2-75.1 138.7-76.8 3.3-.1 14.8.3 25.5.8zm1126 103.9c50.4 7.6 97.6 31.9 122.3 63.1 14.2 17.9 22.4 32.8 25.3 45.8 3.2 14.6.8 52.3-5.3 82.2-12.7 62.4-30.2 100.3-83.3 180-69.7 104.7-157.2 205.9-201.5 233-14.5 8.9-32.5 15.5-50.5 18.6-11.5 2-28.8 1.5-37-1.1-14.7-4.6-23.1-24.2-21.6-51 1.3-24.5 8.1-41.4 19.4-48.1 8.6-5.2 16-6.5 42.7-7.5 35.8-1.3 48.6-3.3 60.5-9.5 16.4-8.4 23.4-28.2 18.6-52.6-3.2-16.6-9-19.3-48.1-22.8-23.5-2.1-38.1-4.1-43-6-2.3-.9-2.6-1.4-2-3.8 1-4 5.9-14.9 13.5-30.2 7.5-15 10-22.2 10-28.8 0-13.9-11.1-18.9-39.5-17.9-15.7.6-28.7 2.5-34.8 5.1-5.6 2.3-12.1 9-15.6 15.9-1.7 3.5-5.6 13.5-8.7 22.3-7.1 20-9.8 25.7-14 29.4-5.6 4.9-9.1 5.3-38.4 4.5-42.8-1.1-50 1.4-58.7 20.3-6.7 14.3-15.3 43.5-15.3 51.6 0 2.9-.9 2.6 22.5 6.1 41.6 6.2 59.9 10 63 13.2 2.4 2.3 1.3 7.1-4 17.8-6.2 12.2-16 25.8-27.9 38.2-30.6 32.1-63.6 42.9-95.5 31.3-31.6-11.6-57.6-46.5-71.6-96.4-6.8-24.5-7.9-32.9-7.9-62.6 0-33.7 2.9-56.1 12-92.5 11.2-44.7 25.9-83.6 57.2-150.6 21-44.8 34.3-75.9 38.9-90.4 4.8-14.8 4.8-14.8 11.4-19.5 32.1-22.5 159.4-58.8 275.3-78.5 33.2-5.6 57.4-8.6 90.1-10.9 9.2-.7 28.9.4 41.5 2.3z" fill="#FFFFFF"></path><path d="M454.2 1260.2c-3.8 20.9-5.4 31.8-9.7 66.1-2.3 18.8-4.2 34.3-4.1 34.4 0 .1 34.3 2.9 76.1 6.2 181.6 14.6 225.6 18.6 373.5 34 61.5 6.5 195.6 19.5 380 37.1 81.1 7.7 194.3 18.8 251.5 24.5 131.9 13.2 137.4 13.7 158.5 13.9 16.8.1 17.7 0 22.5-2.4 6.1-3 7.7-5.7 10.9-18 7.5-28.4 7.7-68.2.5-83.5-3.8-8.1-4.1-8.2-26.4-10-31-2.5-113.3-10.1-162.9-15.1-50.8-5-274.2-26.6-454.1-43.8-390.5-37.4-581.3-54.6-608.1-54.6h-6.2l-2 11.2z" fill="#FFFFFF"></path><path d="M446.6 1422.6c-2.9 7.5-4.6 191.4-4.6 494.1V2160h1267v-611.8l-2.7-.6c-23.5-4.9-71.8-10.4-182.8-20.6-56.5-5.2-110.4-10.6-130.9-13.1-23.1-2.8-61.8-6.7-164.1-16.4-103.7-9.9-322.9-31.6-348-34.5-43.7-5-310.6-30.9-402-38.9-12.6-1.2-24.9-2.3-27.2-2.6-3.1-.3-4.3-.1-4.7 1.1zm911.8 397.8c5.9 1.8 12.3 6.7 16.9 12.9 7.9 10.6 7 22.7-2.2 30.9-6.5 5.9-12.7 7.8-25 7.8-17.4 0-22.5-4.8-22.5-21 0-10.3 2.1-17.1 7-22.9 7-8.1 15.8-10.7 25.8-7.7zm-556.8 8.8c2.9 1 7.2 3.7 9.7 5.9 19.5 17.1 9.4 48-17 51.4-6.2.9-14.9-1.4-18-4.7-6.2-6.6-8.8-21.8-5.9-34.1 4.5-19.2 14-24.9 31.2-18.5zm313.9 159.8c20 1.9 27 5.2 27 13 0 3.6-.6 4.7-3.4 7.1-6.7 5.5-19.9 6.9-68.1 6.9-50.8 0-63.9-1.6-69.4-8.1-3.7-4.4-3.4-8.4.8-12.4 3.8-3.5 9.7-5.2 23.2-6.5 12.1-1.1 77.5-1.1 89.9 0z" fill="#FFFFFF"></path><path d="M359.5 1616.6c-24.4 12.8-36.5 20.3-49 30.3-25.7 20.7-47.8 48.6-66.7 84.1-19 35.6-23.3 58.3-20.9 109.9 2.9 63.2 7.4 81.5 27.7 113.3 23.8 37.2 105.7 109.8 123.9 109.8 2.7 0 3-.9 4.4-14.5 4.1-39 5.3-108.2 4.9-287.7l-.3-157.8-24 12.6z" fill="#FFFFFF"></path><path d="M1774.6 1604.8c-.4.6-1.3 7.3-2.1 14.9-7.1 69.7-7.4 344.6-.4 424.8 1.3 15.4 2.1 18.9 4.1 19.3 4.3.8 48.5-25.3 65.5-38.8 13-10.3 36.1-33 46.8-46 17.2-20.8 33.6-49.5 39.9-69.5 4.4-14.1 6.6-39.1 6.6-75.5 0-40.4-2.5-64.3-8.6-81.2-6.9-19.1-21.8-43.9-37.3-61.8-27.7-32.1-73.4-70.4-98.5-82.5-8.2-3.9-14.9-5.5-16-3.7z" fill="#FFFFFF"></path></g></svg>